<svg width="720" height="720" viewBox="0 0 720 720" fill="none" xmlns="http://www.w3.org/2000/svg">
<path d="M592.5 0H127.5C57.0837 0 0 58.5474 0 130.769V589.231C0 661.453 57.0837 720 127.5 720H592.5C662.916 720 720 661.453 720 589.231V130.769C720 58.5474 662.916 0 592.5 0Z" fill="#F4811F"/>
<path d="M527.436 341.17L515.524 336.385C459.354 462.802 235.861 385.953 222.412 423.557C220.124 448.952 344.359 428.412 433.26 432.691C460.349 434.001 473.938 454.454 462.445 487.796H485.151C511.35 406.3 594.714 447.887 598.207 420.989C592.374 403.384 502.267 421.059 527.436 341.17Z" fill="white" fill-opacity="0.1"/>
<path d="M468.855 473.823C472.435 461.859 471.248 449.913 465.362 442.734C462.243 439.002 458.42 435.921 454.111 433.667C449.801 431.414 445.09 430.032 440.246 429.6L232.262 427.207C231.075 427.207 229.87 426.002 228.682 426.002C228.4 425.796 228.171 425.526 228.013 425.215C227.856 424.904 227.773 424.56 227.773 424.212C227.773 423.863 227.856 423.519 228.013 423.208C228.171 422.897 228.4 422.627 228.682 422.421C229.87 420.029 231.075 418.928 233.45 418.928L442.639 416.535C467.754 415.33 494.041 395.017 503.612 371.124L515.524 339.983C515.524 338.777 516.729 337.59 515.524 336.385C502.372 275.429 447.407 230 382.783 230C323.015 230 271.613 268.25 253.693 322.045C241.2 313.123 225.961 308.893 210.657 310.098C181.926 312.474 159.22 336.385 155.727 365.081C154.522 372.242 155.727 379.42 156.915 386.599C134.183 387.24 112.598 396.723 96.7494 413.032C80.9009 429.34 72.039 451.187 72.048 473.928C71.853 478.346 72.2525 482.769 73.2357 487.08C73.2902 488.015 73.6873 488.897 74.351 489.557C75.0147 490.218 75.8986 490.611 76.8337 490.66H460.489C462.881 490.66 465.274 489.473 465.274 487.08L468.855 473.823Z" fill="white"/>
<path d="M534.594 339.982H528.62C527.433 339.982 526.227 341.17 525.04 342.357L516.674 371.054C513.076 383 514.281 394.965 520.167 402.126C523.278 405.863 527.097 408.948 531.404 411.205C535.711 413.462 540.422 414.846 545.265 415.277L589.506 417.67C590.694 417.67 591.882 418.875 592.999 418.875C593.259 419.087 593.468 419.353 593.611 419.655C593.755 419.957 593.829 420.287 593.829 420.622C593.829 420.956 593.755 421.287 593.611 421.589C593.468 421.891 593.259 422.157 592.999 422.369C591.794 424.761 590.607 425.949 588.214 425.949L542.803 428.342C517.704 429.547 491.401 449.86 481.847 473.753L479.454 484.512C478.266 485.7 479.454 488.093 481.847 488.093H639.633C640.12 488.163 640.616 488.119 641.082 487.963C641.549 487.808 641.973 487.547 642.32 487.199C642.668 486.851 642.93 486.428 643.085 485.961C643.24 485.495 643.284 484.999 643.214 484.512C645.607 474.941 647.999 464.182 647.999 453.423C647.999 391.262 596.597 339.895 534.471 339.895" fill="white" fill-opacity="0.75"/>
</svg>
