<svg xmlns="http://www.w3.org/2000/svg" xmlns:xlink="http://www.w3.org/1999/xlink" width="89" height="89" fill="none" version="1.1" viewBox="0 0 89 89"><defs><clipPath id="master_svg0_76_1264"><rect width="89" height="89" x="0" y="0" rx="44.5"/></clipPath><linearGradient id="master_svg1_69_6524" x1=".142" x2="1" y1=".952" y2=".063"><stop offset="0%" stop-color="#00BB81" stop-opacity="1"/><stop offset="100%" stop-color="#0064F0" stop-opacity="1"/></linearGradient></defs><g clip-path="url(#master_svg0_76_1264)"><rect width="89" height="89" x="0" y="0" fill="#02040F" fill-opacity="1" rx="44.5"/><g><path fill="url(#master_svg1_69_6524)" fill-opacity="1" d="M34.1132,39.6999L34.1132,48.3001C34.1131,49.9847,34.855000000000004,51.5848,36.1432,52.6784L36.8268,53.2571C37.8733,54.1456,39.2042,54.6334,40.5801,54.6328L52.2151,54.6328C55.41,54.6328,58,57.2089,58,60.3868L58,67.24600000000001C58,70.4239,55.41,73,52.2151,73L41.6166,73C38.4216,73,35.8316,70.4239,35.8316,67.24600000000001L35.8316,59.5266C35.831900000000005,57.84,35.0881,56.2383,33.7968,55.1451L33.1101,54.5632C32.0634,53.6772,30.734,53.1907,29.36,53.1907L23.796039999999998,53.1907C20.59491,53.1968,17.99735115,50.616,18,47.432L18,40.5743C18,37.3965,20.58999,34.8203,23.78491,34.8203L29.3584,34.8203C30.734,34.8197,32.0646,34.3321,33.1117,33.4447L33.7937,32.866C35.0828,31.7721,35.8253,30.1719,35.8253,28.4876L35.8253,20.75399C35.8253,17.57368,38.419200000000004,14.99650518,41.6166,15.00000361908L52.2151,15.00000361908C55.41,15.00000361908,58,17.57615,58,20.75399L58,27.6132C58,30.7911,55.41,33.3672,52.2151,33.3672L40.5737,33.3672C39.197900000000004,33.3666,37.8669,33.8544,36.8204,34.7429L36.1369,35.321600000000004C34.851,36.416399999999996,34.1115,38.0163,34.1132,39.6999Z"/></g></g></svg>