<?xml version="1.0" encoding="utf-8"?>
<svg xmlns="http://www.w3.org/2000/svg" enable-background="new 0 0 238.1 238.1" id="Layer_x5F_1_x5F_1" version="1.1" viewBox="0 0 238.1 238.1" x="0px" y="0px">
<linearGradient gradientUnits="userSpaceOnUse" id="SVGID_1_" x1="75.51" x2="224.18" y1="119.055" y2="119.055">
	<stop offset="0" style="stop-color:#A4B9C1"/>
	<stop offset="0.84" style="stop-color:#007C8F"/>
</linearGradient>
<path d="M224.2,238.1L158,45.3c0,0-15.9-45.3-82.5-45.3l66.6,194C142.1,194,153.1,238.1,224.2,238.1z" fill="url(#SVGID_1_)"/>
<linearGradient gradientUnits="userSpaceOnUse" id="SVGID_2_" x1="29.37" x2="142.98" y1="147.13" y2="147.13">
	<stop offset="0" style="stop-color:#FAD1A6"/>
	<stop offset="0.78" style="stop-color:#F19F48"/>
</linearGradient>
<path d="M143,238.1L92.4,90.7c0,0-12.2-34.6-63.1-34.6l50.9,148.3C80.3,204.4,89.7,238.1,143,238.1z" fill="url(#SVGID_2_)"/>
<linearGradient gradientUnits="userSpaceOnUse" id="SVGID_3_" x1="0" x2="76.78" y1="176.62" y2="176.62">
	<stop offset="1.000000e-002" style="stop-color:#A4B9C1"/>
	<stop offset="0.84" style="stop-color:#007C8F"/>
</linearGradient>
<path d="M76.8,238.1l-34.2-99.6c0,0-8.2-23.4-42.6-23.4l34.4,100.2C34.4,215.4,41.3,238.1,76.8,238.1z" fill="url(#SVGID_3_)"/>
</svg>