<svg xmlns="http://www.w3.org/2000/svg" xmlns:xlink="http://www.w3.org/1999/xlink" id="图层_1" data-name="图层 1" viewBox="0 0 458.61 454.04"><defs><style>.cls-1{fill:url(#未命名的渐变_31)}.cls-2{fill:url(#未命名的渐变_31-2)}.cls-3{fill:url(#未命名的渐变_31-3)}</style><linearGradient id="未命名的渐变_31" x1="264.3" x2="311.9" y1="371.67" y2="371.67" gradientUnits="userSpaceOnUse"><stop offset="0" stop-color="#13e0bc"/><stop offset="1" stop-color="#97ff7d"/></linearGradient><linearGradient id="未命名的渐变_31-2" x1="310.03" x2="342.96" y1="387.38" y2="387.38" xlink:href="#未命名的渐变_31"/><linearGradient id="未命名的渐变_31-3" x1="86.1" x2="372.02" y1="226.98" y2="226.98" xlink:href="#未命名的渐变_31"/></defs><title>logo</title><path d="M307.08,329.41h0a8.17,8.17,0,0,0-10.8,4.11L265,403.13a8.17,8.17,0,1,0,14.91,6.69l31.26-69.61A8.17,8.17,0,0,0,307.08,329.41Z" class="cls-1"/><path d="M338.17,361.39a8.12,8.12,0,0,0-10.73,4.08l-16.69,37.17a8.11,8.11,0,0,0,14.8,6.65l16.7-37.17A8.12,8.12,0,0,0,338.17,361.39Z" class="cls-2"/><path d="M342.42,28.85a49.94,49.94,0,0,0-15.95-4.16,50.27,50.27,0,0,0-9-.84H136.22a50.12,50.12,0,0,0,0,100.24h98.6a6.71,6.71,0,0,1,2.41.56,6.59,6.59,0,0,1,3.31,8.71,3.37,3.37,0,0,1-.19.32l0,0L139,359.44a50,50,0,0,0-3.83,13.22,22.58,22.58,0,0,1,12.46,41,49.94,49.94,0,0,0,16.56,12h0a50.12,50.12,0,0,0,66.25-25.19L367.61,95.1A50.11,50.11,0,0,0,342.42,28.85ZM138.1,108.93a35.54,35.54,0,1,1,35.54-35.54A35.54,35.54,0,0,1,138.1,108.93Z" class="cls-3"/></svg>