<?xml version="1.0" encoding="utf-8"?>
<!-- Generator: Adobe Illustrator 27.0.1, SVG Export Plug-In . SVG Version: 6.00 Build 0)  -->
<svg version="1.1" id="Standard_product_icon" xmlns="http://www.w3.org/2000/svg" xmlns:xlink="http://www.w3.org/1999/xlink"
	 x="0px" y="0px" width="192px" height="192px" viewBox="0 0 192 192" enable-background="new 0 0 192 192" xml:space="preserve">
<rect id="bounding_box_00000147213088670677937380000004317148857311269034_" fill="none" width="192" height="192"/>
<g id="art_layer">
</g>
<g>
	<path fill="#FBBC04" d="M53.19,146.53l-22.66,22.66c-1.74,1.74-4.57,1.74-6.32,0l-1.4-1.4c-1.74-1.74-1.74-4.57,0-6.32l22.66-22.66
		c1.74-1.74,4.57-1.74,6.32,0l1.4,1.4C54.94,141.95,54.94,144.78,53.19,146.53z"/>
	<path fill="#4285F4" d="M114,156h29c16.02,0,29-12.98,29-29V49c0-16.02-12.98-29-29-29h0c-16.02,0-29,12.98-29,29V156z"/>
	<path fill="#FBBC04" d="M66,156L66,156c16.02,0,29-12.98,29-29v0c0-16.02-12.98-29-29-29h0c-16.02,0-29,12.98-29,29v0
		C37,143.02,49.98,156,66,156z"/>
	<path fill="#34A853" d="M134.26,156H106c-16.02,0-29-12.98-29-29V89c0-16.02,12.98-29,29-29h0c16.02,0,29,12.98,29,29v66.26
		C135,155.67,134.67,156,134.26,156z"/>
	<g>
		<path fill="none" d="M106,60c-16.02,0-29,12.98-29,29v38c0,16.02,12.98,29,29,29h8V61.13C111.46,60.4,108.78,60,106,60z"/>
		<path fill="#1967D2" d="M135,155.26V89c0-13.24-8.88-24.4-21-27.87V156h20.26C134.67,156,135,155.67,135,155.26z"/>
	</g>
	<g>
		<path fill="none" d="M106,60.56c-16.02,0-29,12.98-29,29v11.17c10.56,4.33,18,14.71,18,26.83v0c0,8.26-3.46,15.71-9,20.99
			c5.2,4.96,12.24,8.01,20,8.01h28.26c0.41,0,0.74-0.33,0.74-0.74V89.56C135,73.55,122.02,60.56,106,60.56z"/>
		<path fill="#EA4335" d="M95,127.56L95,127.56c0-12.12-7.44-22.5-18-26.83v26.83c0,8.26,3.46,15.71,9,20.99
			C91.54,143.27,95,135.82,95,127.56z"/>
	</g>
</g>
</svg>
